<?xml version="1.0" encoding="UTF-8" standalone="no"?>
<svg
   viewBox="0 0 128 128"
   version="1.1"
   id="svg8"
   sodipodi:docname="kryptonite.svg"
   inkscape:version="1.2.1 (9c6d41e410, 2022-07-14)"
   inkscape:export-filename="kryptonite.png"
   inkscape:export-xdpi="96"
   inkscape:export-ydpi="96"
   xml:space="preserve"
   xmlns:inkscape="http://www.inkscape.org/namespaces/inkscape"
   xmlns:sodipodi="http://sodipodi.sourceforge.net/DTD/sodipodi-0.dtd"
   xmlns:xlink="http://www.w3.org/1999/xlink"
   xmlns="http://www.w3.org/2000/svg"
   xmlns:svg="http://www.w3.org/2000/svg"><defs
     id="defs12"><linearGradient
       inkscape:collect="always"
       id="linearGradient1829"><stop
         style="stop-color:#aad400;stop-opacity:1"
         offset="0"
         id="stop1825" /><stop
         style="stop-color:#6b8600;stop-opacity:1;"
         offset="1"
         id="stop1827" /></linearGradient><inkscape:path-effect
       effect="fillet_chamfer"
       id="path-effect5030"
       is_visible="true"
       lpeversion="1"
       nodesatellites_param="F,0,0,1,0,6,0,1 @ F,0,0,1,0,6,0,1 @ F,0,0,1,0,6,0,1 @ F,0,0,1,0,6,0,1 @ F,0,0,1,0,6,0,1 @ F,0,0,1,0,6,0,1"
       unit="px"
       method="auto"
       mode="F"
       radius="6"
       chamfer_steps="1"
       flexible="false"
       use_knot_distance="true"
       apply_no_radius="true"
       apply_with_radius="true"
       only_selected="false"
       hide_knots="false" /><inkscape:path-effect
       effect="fillet_chamfer"
       id="path-effect5030-9"
       is_visible="true"
       lpeversion="1"
       nodesatellites_param="F,0,0,1,0,6,0,1 @ F,0,0,1,0,6,0,1 @ F,0,0,1,0,6,0,1 @ F,0,0,1,0,6,0,1 @ F,0,0,1,0,6,0,1 @ F,0,0,1,0,6,0,1"
       unit="px"
       method="auto"
       mode="F"
       radius="6"
       chamfer_steps="1"
       flexible="false"
       use_knot_distance="true"
       apply_no_radius="true"
       apply_with_radius="true"
       only_selected="false"
       hide_knots="false" /><inkscape:path-effect
       effect="fillet_chamfer"
       id="path-effect5030-4"
       is_visible="true"
       lpeversion="1"
       nodesatellites_param="F,0,0,1,0,6,0,1 @ F,0,0,1,0,6,0,1 @ F,0,0,1,0,6,0,1 @ F,0,0,1,0,6,0,1 @ F,0,0,1,0,6,0,1 @ F,0,0,1,0,6,0,1"
       unit="px"
       method="auto"
       mode="F"
       radius="6"
       chamfer_steps="1"
       flexible="false"
       use_knot_distance="true"
       apply_no_radius="true"
       apply_with_radius="true"
       only_selected="false"
       hide_knots="false" /><inkscape:path-effect
       effect="fillet_chamfer"
       id="path-effect5030-9-0"
       is_visible="true"
       lpeversion="1"
       nodesatellites_param="F,0,0,1,0,6,0,1 @ F,0,0,1,0,6,0,1 @ F,0,0,1,0,6,0,1 @ F,0,0,1,0,6,0,1 @ F,0,0,1,0,6,0,1 @ F,0,0,1,0,6,0,1"
       unit="px"
       method="auto"
       mode="F"
       radius="6"
       chamfer_steps="1"
       flexible="false"
       use_knot_distance="true"
       apply_no_radius="true"
       apply_with_radius="true"
       only_selected="false"
       hide_knots="false" /><linearGradient
       inkscape:collect="always"
       xlink:href="#linearGradient1829"
       id="linearGradient2227"
       gradientUnits="userSpaceOnUse"
       gradientTransform="matrix(0.95331481,0,0.09408813,0.95331481,447.07938,47.17473)"
       x1="-200.99498"
       y1="58.050014"
       x2="-200.99498"
       y2="110.30727" /></defs><sodipodi:namedview
     id="namedview10"
     pagecolor="#ffffff"
     bordercolor="#666666"
     borderopacity="1.0"
     inkscape:showpageshadow="2"
     inkscape:pageopacity="0.0"
     inkscape:pagecheckerboard="0"
     inkscape:deskcolor="#d1d1d1"
     showgrid="false"
     inkscape:zoom="4"
     inkscape:cx="225.875"
     inkscape:cy="97.250001"
     inkscape:window-width="3440"
     inkscape:window-height="1369"
     inkscape:window-x="-8"
     inkscape:window-y="-8"
     inkscape:window-maximized="1"
     inkscape:current-layer="svg8" /><g
     id="g2371"
     transform="translate(-202.2257,-56.561707)"><g
       id="g2337"><g
         id="g2909-0-4-7-0-0-3-6-8-8"
         transform="matrix(3.7795276,0,0,3.7795276,-179.7587,89.667586)"
         style="fill:#d4ff2a;fill-opacity:1;stroke:#d4ff2a;stroke-opacity:1"><path
           id="path349-2-5-6-4-8-1-7-8-7-0-7-0-6-4-8"
           style="fill:#88aa00;fill-opacity:1;stroke:#88aa00;stroke-width:0.0664867;stroke-linecap:round;stroke-linejoin:round;stroke-dasharray:none;stroke-opacity:1;paint-order:markers fill stroke;stop-color:#000000"
           d="m 103.62558,16.473168 a 2.5325922,2.5325922 0 0 0 0.89286,0.944819 l 12.21471,7.052423 a 2.5325952,2.5325952 0 0 0 2.53249,-1.75e-4 l 12.21449,-7.052038 a 2.5325952,2.5325952 0 0 0 1.2664,-2.193114 L 132.74631,1.120619 A 2.5325922,2.5325922 0 0 0 132.40788,-0.1443 Z" /><path
           id="path349-2-5-6-0-0-4-1-2-8-2-3-8-2-3-7-6-2"
           style="fill:#aad400;fill-opacity:1;stroke:#aad400;stroke-width:0.0664867;stroke-linecap:round;stroke-linejoin:round;stroke-dasharray:none;stroke-opacity:1;paint-order:markers fill stroke;stop-color:#000000"
           d="m 119.26564,-8.122093 a 2.5325952,2.5325952 0 0 0 -2.53249,-1.81e-4 l -12.21471,7.052428 a 2.5325922,2.5325922 0 0 0 -0.89286,0.944819 l 28.7823,16.617472 a 2.5325922,2.5325922 0 0 0 0.33843,-1.26492 l 2.2e-4,-14.104467 a 2.5325952,2.5325952 0 0 0 -1.2664,-2.193111 z" /><path
           id="path349-2-5-6-0-0-4-2-9-4-1-5-1-6-3-6-2"
           style="fill:#d4ff2a;fill-opacity:1;stroke:#d4ff2a;stroke-width:0.0664867;stroke-linecap:round;stroke-linejoin:round;stroke-dasharray:none;stroke-opacity:1;paint-order:markers fill stroke;stop-color:#000000"
           d="m 104.51995,-1.070054 a 2.5325952,2.5325952 0 0 0 -1.2664,2.193112 l 2.2e-4,14.104464 a 2.5325922,2.5325922 0 0 0 0.37181,1.245645 l 28.7823,-16.617469 a 2.5325922,2.5325922 0 0 0 -0.92624,-0.925545 l -12.21471,-7.052424 a 2.5325952,2.5325952 0 0 0 -2.53249,1.78e-4 z" /></g><path
         id="path349-2-5-6-4-8-1-7-8-7-0-7-0-6-0-2-2"
         style="fill:#88aa00;fill-opacity:1;stroke:none;stroke-width:0.25182;stroke-linecap:round;stroke-linejoin:round;stroke-dasharray:none;stroke-opacity:1;paint-order:markers fill stroke;stop-color:#000000"
         d="m 266.2227,57.561775 a 9.5934819,9.5910884 0 0 0 -2.47624,0.326822 9.5934819,9.5910884 0 0 0 -2.31964,0.956981 l -46.26369,26.707414 -0.006,0.002 a 9.5934704,9.591077 0 0 0 -0.0528,0.04306 9.5934819,9.5910884 0 0 0 -4.73912,8.260569 l 0.002,53.414829 a 9.5934704,9.591077 0 0 0 1.40745,4.71641 9.5934704,9.591077 0 0 0 3.38257,3.57938 l 46.26957,26.70743 a 9.5934819,9.5910884 0 0 0 9.59372,0 l 46.26765,-26.70747 a 9.5934819,9.5910884 0 0 0 3.50982,-3.50894 l 0.006,0.004 a 9.5934704,9.591077 0 0 0 1.28021,-4.79078 9.5934819,9.5910884 0 0 0 0.002,-0.01 v -26.7014 -26.703508 a 9.5934819,9.5910884 0 0 0 -0.002,-0.0098 9.5934704,9.591077 0 0 0 -1.28021,-4.78882 9.5934704,9.591077 0 0 0 -3.50981,-3.505018 l -0.006,-0.002 -46.26368,-26.707413 a 9.5934819,9.5910884 0 0 0 -2.31768,-0.956981 9.5934819,9.5910884 0 0 0 -2.48408,-0.326822 z m 0.21533,2.021599 c 1.20684,0.03935 2.39878,0.354622 3.46086,0.943282 15.28623,8.788599 30.54555,17.627154 45.82129,26.435388 2.43641,1.214617 4.23974,3.706738 4.34762,6.460113 0.0321,17.809463 0.005,35.620343 0.0137,53.430483 0.1602,2.75866 -1.31413,5.50772 -3.69577,6.90827 -15.33306,8.88564 -30.69592,17.72291 -46.04053,26.59 -2.32023,1.45877 -5.40682,1.60156 -7.80261,0.23876 -15.18847,-8.72711 -30.34679,-17.51239 -45.52375,-26.26123 -2.64005,-1.31188 -4.48332,-4.09785 -4.63733,-7.04134 -0.0183,-17.8127 -0.0139,-35.62724 -0.006,-53.44027 0.009,-2.65274 1.49365,-5.208576 3.78581,-6.542309 14.17608,-8.21468 28.37948,-16.387568 42.56597,-24.586006 2.1236,-1.104658 4.06799,-2.737361 6.50283,-3.082302 0.40111,-0.04806 0.80549,-0.06595 1.20778,-0.05284 z" /></g><path
       id="path5610-7-1-7-8-9"
       style="fill:#ffffff;fill-opacity:1;stroke:url(#linearGradient2227);stroke-width:5.15017;stroke-linecap:square;stroke-dasharray:none;stroke-opacity:1;paint-order:markers stroke fill"
       d="M 258.72576,80.543042 245.95184,99.4015 h 15.9951 l -33.29553,58.08512 h 22.34158 l 12.68266,-21.30804 16.60904,21.30804 h 22.74399 l -29.55379,-38.59063 21.80334,-38.259198 z"
       sodipodi:nodetypes="ccccccccccc" /></g></svg>
